<svg height="512" viewBox="0 0 512 512" width="512" xmlns="http://www.w3.org/2000/svg"><g><g fill="#57a4ff"><path d="m288 40v120h-80v-32a32 32 0 0 0 0-64v-24z"/><path d="m296 352v120h-96v-25.01a32 32 0 1 0 0-61.98v-33.01z"/><path d="m179.03 82.39v27.22a32.081 32.081 0 0 1 0-27.22z"/><path d="m179.03 402.39v27.22a32.081 32.081 0 0 1 0-27.22z"/><path d="m179.03 82.38v32.54a144.03 144.03 0 0 0 0 282.16v32.54a176.024 176.024 0 0 1 0-347.24z"/></g><path d="m480 464h-35.06l-29.78-59.58a8.011 8.011 0 0 0 -7.16-4.42h-104v-40h8a8 8 0 0 0 8-8v-24a8 8 0 0 0 -8-8h-128a8 8 0 0 0 -8 8v24a8 8 0 0 0 8 8h8v19.35a40.291 40.291 0 0 0 -13.32 9.47 136.023 136.023 0 0 1 0-265.64 40.031 40.031 0 0 0 21.32 12.02v24.8a8 8 0 0 0 8 8h16v56a8 8 0 0 0 8 8h32a8 8 0 0 0 8-8v-56h16a8 8 0 0 0 8-8v-120a8 8 0 0 0 -8-8h-16v-16a8 8 0 0 0 -8-8h-32a8 8 0 0 0 -8 8v16h-16a8 8 0 0 0 -8 8v16.8a40.1 40.1 0 0 0 -26.13 18.37 184.031 184.031 0 0 0 0 361.66 40.193 40.193 0 0 0 18.13 15.82v11.35h-96a8 8 0 0 0 -8 8v24a8 8 0 0 0 8 8h384a8 8 0 0 0 8-8v-24a8 8 0 0 0 -8-8zm-224-248h-16v-48h16zm-16-192h16v8h-16zm-24 24h64v104h-64v-16.8a40.01 40.01 0 0 0 0-78.4zm-8 24a24 24 0 1 1 -24 24 24.032 24.032 0 0 1 24-24zm-39.86 347.22a168.023 168.023 0 0 1 0-326.44c-.08 1.06-.14 2.13-.14 3.22a39.927 39.927 0 0 0 2.1 12.76 152.053 152.053 0 0 0 0 294.48 39.927 39.927 0 0 0 -2.1 12.76c0 1.09.06 2.16.14 3.22zm234.92-3.22 24 48h-123.06v-48zm-211.06-80h112v8h-112zm16 40v-16h80v104h-80v-8a40 40 0 0 0 0-80zm-24 40a24 24 0 1 1 24 24 24.032 24.032 0 0 1 -24-24zm288 72h-368v-8h368z" fill="#004fac"/></g></svg>